# xmcd CD database file
#
# Track frame offsets:
#	150
#	18734
#	35487
#	54982
#	70557
#	88892
#	102590
#	117205
#	130951
#	152071
#	169965
#	188394
#
# Disc length: 2698 seconds
#
# Revision: 0
# Processed by: cddbd v1.5.1PL2 Copyright (c) Steve Scherf et al.
# Submitted via: CDex 1.50
#
DISCID=9d0a880c
DTITLE=Jaana Raivio - Enkelin unta
DYEAR=2001
DGENRE=Country
TTITLE0=Sua tarvitsin
TTITLE1=Tämä tie
TTITLE2=Sydän janoaa
TTITLE3=Kai hullu oon
TTITLE4=Tule ja tee
TTITLE5=Enemmän
TTITLE6=Taas aurinko nousee
TTITLE7=Antaa viulujen soida
TTITLE8=Sinua en voi unohtaa
TTITLE9=Hei, missä oot?
TTITLE10=Muuttolintu
TTITLE11=Enkelin unta
EXTD=YEAR: 2001
EXTT0=
EXTT1=
EXTT2=
EXTT3=
EXTT4=
EXTT5=
EXTT6=
EXTT7=
EXTT8=
EXTT9=
EXTT10=
EXTT11=
PLAYORDER=
